<mxfile host="app.diagrams.net" agent="Mozilla/5.0 (Macintosh; Intel Mac OS X 10_15_7) AppleWebKit/537.36 (KHTML, like Gecko) Chrome/127.0.0.0 Safari/537.36" version="24.7.8">
  <diagram name="第 1 页" id="hohoXE6kXmkcjNNXuMGf">
    <mxGraphModel dx="954" dy="581" grid="1" gridSize="10" guides="1" tooltips="1" connect="1" arrows="1" fold="1" page="1" pageScale="1" pageWidth="827" pageHeight="1169" math="0" shadow="0">
      <root>
        <mxCell id="0" />
        <mxCell id="1" parent="0" />
        <mxCell id="yrooIhPTmvuDeVJ7sGA4-1" value="CMDB" style="rounded=1;whiteSpace=wrap;html=1;fillColor=#647687;strokeColor=#314354;fontColor=#ffffff;" vertex="1" parent="1">
          <mxGeometry x="200" y="160" width="90" height="40" as="geometry" />
        </mxCell>
        <mxCell id="yrooIhPTmvuDeVJ7sGA4-2" value="kube-coscheduler" style="rounded=1;whiteSpace=wrap;html=1;fillColor=#647687;strokeColor=#314354;fontColor=#ffffff;" vertex="1" parent="1">
          <mxGeometry x="486" y="170" width="100" height="80" as="geometry" />
        </mxCell>
        <mxCell id="yrooIhPTmvuDeVJ7sGA4-4" value="&lt;div&gt;&lt;br&gt;&lt;/div&gt;&lt;div&gt;&lt;br&gt;&lt;/div&gt;&lt;div&gt;&lt;br&gt;&lt;/div&gt;&lt;div&gt;&lt;br&gt;&lt;/div&gt;kubernetes" style="rounded=0;whiteSpace=wrap;html=1;fillColor=#6d8764;fontColor=#ffffff;strokeColor=#3A5431;" vertex="1" parent="1">
          <mxGeometry x="206" y="310" width="400" height="90" as="geometry" />
        </mxCell>
        <mxCell id="yrooIhPTmvuDeVJ7sGA4-8" value="Node1" style="text;html=1;align=center;verticalAlign=middle;resizable=0;points=[];autosize=1;strokeColor=#C73500;fillColor=#fa6800;fontColor=#000000;" vertex="1" parent="1">
          <mxGeometry x="231" y="334" width="60" height="30" as="geometry" />
        </mxCell>
        <mxCell id="yrooIhPTmvuDeVJ7sGA4-9" value="Node2" style="text;html=1;align=center;verticalAlign=middle;resizable=0;points=[];autosize=1;strokeColor=#C73500;fillColor=#fa6800;fontColor=#000000;" vertex="1" parent="1">
          <mxGeometry x="306" y="334" width="60" height="30" as="geometry" />
        </mxCell>
        <mxCell id="yrooIhPTmvuDeVJ7sGA4-10" value="Node2" style="text;html=1;align=center;verticalAlign=middle;resizable=0;points=[];autosize=1;strokeColor=#C73500;fillColor=#fa6800;fontColor=#000000;" vertex="1" parent="1">
          <mxGeometry x="486" y="334" width="60" height="30" as="geometry" />
        </mxCell>
        <mxCell id="yrooIhPTmvuDeVJ7sGA4-11" value="..." style="text;html=1;align=center;verticalAlign=middle;resizable=0;points=[];autosize=1;strokeColor=#C73500;fillColor=#fa6800;fontColor=#000000;" vertex="1" parent="1">
          <mxGeometry x="411" y="334" width="30" height="30" as="geometry" />
        </mxCell>
        <mxCell id="yrooIhPTmvuDeVJ7sGA4-12" value="Monitor" style="rounded=1;whiteSpace=wrap;html=1;fillColor=#647687;strokeColor=#314354;fontColor=#ffffff;" vertex="1" parent="1">
          <mxGeometry x="200" y="223" width="91" height="40" as="geometry" />
        </mxCell>
        <mxCell id="yrooIhPTmvuDeVJ7sGA4-15" value="" style="endArrow=classic;html=1;rounded=0;" edge="1" parent="1">
          <mxGeometry width="50" height="50" relative="1" as="geometry">
            <mxPoint x="291" y="180" as="sourcePoint" />
            <mxPoint x="480" y="210" as="targetPoint" />
          </mxGeometry>
        </mxCell>
        <mxCell id="yrooIhPTmvuDeVJ7sGA4-16" value="" style="endArrow=classic;html=1;rounded=0;" edge="1" parent="1">
          <mxGeometry width="50" height="50" relative="1" as="geometry">
            <mxPoint x="291" y="250" as="sourcePoint" />
            <mxPoint x="480" y="220" as="targetPoint" />
          </mxGeometry>
        </mxCell>
        <mxCell id="yrooIhPTmvuDeVJ7sGA4-17" value="" style="shape=flexArrow;endArrow=classic;startArrow=classic;html=1;rounded=0;exitX=0.838;exitY=0;exitDx=0;exitDy=0;exitPerimeter=0;" edge="1" parent="1" source="yrooIhPTmvuDeVJ7sGA4-4">
          <mxGeometry width="100" height="100" relative="1" as="geometry">
            <mxPoint x="441" y="350" as="sourcePoint" />
            <mxPoint x="541" y="250" as="targetPoint" />
          </mxGeometry>
        </mxCell>
        <mxCell id="yrooIhPTmvuDeVJ7sGA4-19" value="" style="shape=flexArrow;endArrow=classic;startArrow=classic;html=1;rounded=0;width=12;endSize=6.33;" edge="1" parent="1">
          <mxGeometry width="100" height="100" relative="1" as="geometry">
            <mxPoint x="245" y="331" as="sourcePoint" />
            <mxPoint x="245" y="261" as="targetPoint" />
          </mxGeometry>
        </mxCell>
        <mxCell id="yrooIhPTmvuDeVJ7sGA4-25" value="" style="edgeStyle=orthogonalEdgeStyle;rounded=0;orthogonalLoop=1;jettySize=auto;html=1;" edge="1" parent="1" source="yrooIhPTmvuDeVJ7sGA4-21" target="yrooIhPTmvuDeVJ7sGA4-24">
          <mxGeometry relative="1" as="geometry" />
        </mxCell>
        <mxCell id="yrooIhPTmvuDeVJ7sGA4-21" value="Filebeat" style="rounded=1;whiteSpace=wrap;html=1;fillColor=#fa6800;fontColor=#000000;strokeColor=#C73500;" vertex="1" parent="1">
          <mxGeometry x="80" y="600" width="80" height="40" as="geometry" />
        </mxCell>
        <mxCell id="yrooIhPTmvuDeVJ7sGA4-27" value="" style="edgeStyle=orthogonalEdgeStyle;rounded=0;orthogonalLoop=1;jettySize=auto;html=1;" edge="1" parent="1" source="yrooIhPTmvuDeVJ7sGA4-24" target="yrooIhPTmvuDeVJ7sGA4-26">
          <mxGeometry relative="1" as="geometry" />
        </mxCell>
        <mxCell id="yrooIhPTmvuDeVJ7sGA4-29" style="edgeStyle=orthogonalEdgeStyle;rounded=0;orthogonalLoop=1;jettySize=auto;html=1;exitX=1;exitY=0.5;exitDx=0;exitDy=0;entryX=0;entryY=0.5;entryDx=0;entryDy=0;exitPerimeter=0;" edge="1" parent="1" source="yrooIhPTmvuDeVJ7sGA4-24" target="yrooIhPTmvuDeVJ7sGA4-28">
          <mxGeometry relative="1" as="geometry" />
        </mxCell>
        <mxCell id="yrooIhPTmvuDeVJ7sGA4-24" value="Kafka" style="whiteSpace=wrap;html=1;rounded=1;fillColor=#60a917;fontColor=#ffffff;strokeColor=#2D7600;" vertex="1" parent="1">
          <mxGeometry x="216" y="600" width="74" height="40" as="geometry" />
        </mxCell>
        <mxCell id="yrooIhPTmvuDeVJ7sGA4-31" value="" style="edgeStyle=orthogonalEdgeStyle;rounded=0;orthogonalLoop=1;jettySize=auto;html=1;" edge="1" parent="1" source="yrooIhPTmvuDeVJ7sGA4-26" target="yrooIhPTmvuDeVJ7sGA4-30">
          <mxGeometry relative="1" as="geometry" />
        </mxCell>
        <mxCell id="yrooIhPTmvuDeVJ7sGA4-26" value="logstash" style="whiteSpace=wrap;html=1;rounded=1;fillColor=#a20025;fontColor=#ffffff;strokeColor=#6F0000;" vertex="1" parent="1">
          <mxGeometry x="366" y="565" width="63" height="40" as="geometry" />
        </mxCell>
        <mxCell id="yrooIhPTmvuDeVJ7sGA4-35" value="" style="edgeStyle=orthogonalEdgeStyle;rounded=0;orthogonalLoop=1;jettySize=auto;html=1;" edge="1" parent="1" source="yrooIhPTmvuDeVJ7sGA4-28" target="yrooIhPTmvuDeVJ7sGA4-34">
          <mxGeometry relative="1" as="geometry" />
        </mxCell>
        <mxCell id="yrooIhPTmvuDeVJ7sGA4-28" value="logdump（自研）" style="whiteSpace=wrap;html=1;rounded=1;fillColor=#b1ddf0;strokeColor=#10739e;" vertex="1" parent="1">
          <mxGeometry x="366" y="630" width="63" height="40" as="geometry" />
        </mxCell>
        <mxCell id="yrooIhPTmvuDeVJ7sGA4-33" value="" style="edgeStyle=orthogonalEdgeStyle;rounded=0;orthogonalLoop=1;jettySize=auto;html=1;" edge="1" parent="1" source="yrooIhPTmvuDeVJ7sGA4-30" target="yrooIhPTmvuDeVJ7sGA4-32">
          <mxGeometry relative="1" as="geometry" />
        </mxCell>
        <mxCell id="yrooIhPTmvuDeVJ7sGA4-30" value="Es" style="whiteSpace=wrap;html=1;rounded=1;fillColor=#a20025;fontColor=#ffffff;strokeColor=#6F0000;" vertex="1" parent="1">
          <mxGeometry x="486" y="562" width="69.5" height="45" as="geometry" />
        </mxCell>
        <mxCell id="yrooIhPTmvuDeVJ7sGA4-32" value="Kibana" style="whiteSpace=wrap;html=1;rounded=1;fillColor=#a20025;fontColor=#ffffff;strokeColor=#6F0000;" vertex="1" parent="1">
          <mxGeometry x="610.25" y="562.25" width="69.75" height="45.5" as="geometry" />
        </mxCell>
        <mxCell id="yrooIhPTmvuDeVJ7sGA4-34" value="glusterfs（集群）" style="whiteSpace=wrap;html=1;rounded=1;fillColor=#b1ddf0;strokeColor=#10739e;" vertex="1" parent="1">
          <mxGeometry x="486" y="625" width="69.5" height="50" as="geometry" />
        </mxCell>
        <mxCell id="yrooIhPTmvuDeVJ7sGA4-36" value="重要服务数据" style="text;html=1;align=center;verticalAlign=middle;resizable=0;points=[];autosize=1;strokeColor=none;fillColor=none;" vertex="1" parent="1">
          <mxGeometry x="314" y="528" width="100" height="30" as="geometry" />
        </mxCell>
        <mxCell id="yrooIhPTmvuDeVJ7sGA4-37" value="全部服务数据" style="text;html=1;align=center;verticalAlign=middle;resizable=0;points=[];autosize=1;strokeColor=none;fillColor=none;" vertex="1" parent="1">
          <mxGeometry x="314" y="690" width="100" height="30" as="geometry" />
        </mxCell>
      </root>
    </mxGraphModel>
  </diagram>
</mxfile>
